HIERARCHY
ROOT ROOT
{
	OFFSET 0.000000 56.020000 -5.659234
	CHANNELS 6 Xposition Yposition Zposition Xrotation Yrotation Zrotation 
	JOINT C_spine0001_bind_JNT
	{
		OFFSET 0.000000 1.618999 0.000000
		CHANNELS 3 Xrotation Yrotation Zrotation
		JOINT C_spine0002_bind_JNT
		{
			OFFSET 0.000000 4.942001 0.000001
			CHANNELS 3 Xrotation Yrotation Zrotation
			JOINT C_spine0003_bind_JNT
			{
				OFFSET 0.000000 4.942001 -0.000000
				CHANNELS 3 Xrotation Yrotation Zrotation
				JOINT C_neck0001_bind_JNT
				{
					OFFSET 0.000000 17.026009 -0.000000
					CHANNELS 3 Xrotation Yrotation Zrotation
					JOINT C_neck0002_bind_JNT
					{
						OFFSET 0.000000 3.249985 0.000000
						CHANNELS 3 Xrotation Yrotation Zrotation
						JOINT C_head_bind_JNT
						{
							OFFSET 0.000000 5.278008 0.000000
							CHANNELS 3 Xrotation Yrotation Zrotation
							End Site
							{
								OFFSET 0.000000 0.000000 0.000000
							}
						}
					}
				}
				JOINT L_clavicle_bind_JNT
				{
					OFFSET 4.590000 12.067001 0.834000
					CHANNELS 3 Xrotation Yrotation Zrotation
					JOINT L_armUpper0001_bind_JNT
					{
						OFFSET 7.812635 0.512001 -3.452945
						CHANNELS 3 Xrotation Yrotation Zrotation
						JOINT L_armLower0001_bind_JNT
						{
							OFFSET 15.265892 -6.552116 -0.058157
							CHANNELS 3 Xrotation Yrotation Zrotation
							JOINT L_hand0001_bind_JNT
							{
								OFFSET 14.747667 -6.369995 5.049225
								CHANNELS 3 Xrotation Yrotation Zrotation
								End Site
								{
									OFFSET 0.000000 0.000000 0.000000
								}
							}
						}
					}
				}
				JOINT R_clavicle_bind_JNT
				{
					OFFSET -4.590000 12.067001 0.834000
					CHANNELS 3 Xrotation Yrotation Zrotation
					JOINT R_armUpper0001_bind_JNT
					{
						OFFSET -7.812635 0.512001 -3.452945
						CHANNELS 3 Xrotation Yrotation Zrotation
						JOINT R_armLower0001_bind_JNT
						{
							OFFSET -15.265890 -6.552124 -0.058160
							CHANNELS 3 Xrotation Yrotation Zrotation
							JOINT R_hand0001_bind_JNT
							{
								OFFSET -14.746784 -6.369629 5.048937
								CHANNELS 3 Xrotation Yrotation Zrotation
								End Site
								{
									OFFSET 0.000000 0.000000 0.000000
								}
							}
						}
					}
				}
			}
		}
	}
	JOINT C_pelvis0001_bind_JNT
	{
		OFFSET -0.000000 0.000000 0.000000
		CHANNELS 3 Xrotation Yrotation Zrotation
		JOINT L_legUpper0001_bind_JNT
		{
			OFFSET 6.599999 -6.027000 0.539000
			CHANNELS 3 Xrotation Yrotation Zrotation
			JOINT L_legLower0001_bind_JNT
			{
				OFFSET -0.140713 -19.187443 0.040261
				CHANNELS 3 Xrotation Yrotation Zrotation
				JOINT L_foot0001_bind_JNT
				{
					OFFSET -0.132215 -18.028637 -1.138370
					CHANNELS 3 Xrotation Yrotation Zrotation
					JOINT L_foot0002_bind_JNT
					{
						OFFSET 0.007014 -4.693133 9.886524
						CHANNELS 3 Xrotation Yrotation Zrotation
						End Site
						{
							OFFSET 0.000000 0.000000 0.000000
						}
					}
				}
			}
		}
		JOINT R_legUpper0001_bind_JNT
		{
			OFFSET -6.599999 -6.027000 0.539000
			CHANNELS 3 Xrotation Yrotation Zrotation
			JOINT R_legLower0001_bind_JNT
			{
				OFFSET 0.140710 -19.187164 0.040550
				CHANNELS 3 Xrotation Yrotation Zrotation
				JOINT R_foot0001_bind_JNT
				{
					OFFSET 0.132215 -18.028633 -1.138362
					CHANNELS 3 Xrotation Yrotation Zrotation
					JOINT R_foot0002_bind_JNT
					{
						OFFSET -0.007014 -4.693128 9.886505
						CHANNELS 3 Xrotation Yrotation Zrotation
						End Site
						{
							OFFSET 0.000000 0.000000 0.000000
						}
					}
				}
			}
		}
	}
}
MOTION
Frames: 6
Frame Time: 0.033333
7.874576 48.977352 40.071365 0.028202 -35.916386 -0.045388 13.316731 22.445496 -13.030136 -3.189104 -0.887370 -2.502604 6.106377 0.125248 -2.710030 14.215721 -0.803686 0.926695 -0.084336 -0.280994 -0.166803 -9.752516 -2.129073 1.155443 10.019794 7.318155 5.857724 -25.254822 -6.740302 -55.658928 2.822819 -2.158934 1.173702 3.096940 -12.716788 -27.990519 6.381056 7.725441 -6.518707 17.616774 -4.655651 39.370659 -3.908302 4.011527 77.706993 -11.027310 13.338331 17.162998 12.642539 25.053959 -8.322747 -7.687622 3.496657 1.547725 9.822210 2.119277 -1.687057 -9.160297 -0.913596 0.527268 -3.859381 -0.343843 0.767157 -27.618116 -2.711520 -2.869136 14.395027 1.600918 0.450278 3.487490 9.420645 3.570401 -1.895260 0.845325 0.358899
7.457689 48.825649 40.534775 0.032216 -35.955269 -0.039754 13.016232 22.941036 -12.458254 -3.239111 -0.916339 -2.464943 6.025830 0.010711 -2.516747 14.204345 -0.673877 0.800446 0.014803 -0.241196 -0.268270 -9.780943 -1.877420 0.806262 10.236055 7.533015 5.964729 -25.356306 -6.741631 -55.953583 3.597404 -0.769585 1.175588 2.868224 -13.249521 -27.817282 6.593335 7.696085 -6.505913 17.928585 -4.845549 39.006371 -3.742909 3.755466 78.615211 -11.512125 13.654225 17.181141 12.446287 25.577681 -7.887474 -6.867017 3.051455 1.529049 9.950178 2.173863 -1.669425 -9.619125 -0.909255 0.127894 -3.963779 -0.381931 0.711044 -27.324560 -3.046254 -2.919571 14.670429 1.941115 0.215838 3.312776 9.303113 2.692639 -1.925191 0.880417 0.139914
6.962844 48.705933 40.955471 0.030644 -35.628304 -0.041186 12.892447 23.148233 -12.031295 -3.323983 -1.009598 -2.350048 5.999601 -0.061984 -2.438663 14.161846 -0.539746 0.794879 -0.047053 -0.316961 -0.267104 -9.724036 -1.717054 0.588210 10.179799 7.532021 6.151217 -25.052891 -6.581405 -56.181637 4.036895 0.259125 1.339616 3.091733 -13.500727 -27.626596 6.511670 7.666351 -6.263266 18.299479 -4.955855 38.589817 -3.424282 3.272489 79.408264 -11.751875 14.142156 17.007608 12.380099 25.889322 -7.455191 -6.513292 2.681745 1.488424 10.416588 2.171795 -1.548247 -10.265468 -1.062353 -0.374365 -3.953799 -0.419167 0.706808 -26.727188 -3.050050 -2.815257 14.860315 2.010551 0.138719 3.001728 9.229918 1.845252 -2.107062 0.884977 -0.054016
6.431574 48.619396 41.375095 0.029262 -35.506023 -0.047115 12.697126 23.547215 -11.378991 -3.405064 -1.042805 -2.302192 5.857838 -0.000061 -2.242555 14.226861 -0.563267 0.561756 -0.088220 -0.310227 -0.248016 -9.819630 -1.470866 0.350592 10.434328 7.484797 6.150538 -24.969074 -6.431843 -56.567287 4.593603 1.516661 1.523682 3.261426 -13.758766 -27.651764 6.611266 7.564699 -6.250547 18.476923 -5.139056 38.148277 -3.295269 2.864089 80.082115 -12.018273 14.645380 17.164824 12.337753 26.260023 -6.951822 -5.963516 2.540029 1.436431 10.533643 2.078176 -1.377843 -10.679518 -1.101764 -0.854012 -3.978467 -0.451966 0.704193 -26.125950 -3.132097 -2.499718 15.162722 2.373398 0.064001 1.955413 8.698796 1.031871 -2.192903 0.869898 -0.021201
5.855308 48.541206 41.804375 0.026155 -35.224937 -0.047477 12.706771 23.852959 -11.002827 -3.455432 -1.147020 -2.215256 5.781814 -0.120333 -2.061402 14.128089 -0.399762 0.491654 -0.063990 -0.432953 -0.246846 -9.919643 -1.157738 0.074487 10.454605 7.350500 6.191329 -24.720810 -6.010701 -56.918381 4.706570 2.326793 1.820910 3.239944 -13.736348 -27.552187 6.707317 7.651301 -6.150146 18.322243 -5.365747 37.794075 -3.085874 2.471123 80.427658 -12.159772 14.883143 17.128323 12.387040 26.623945 -6.672377 -5.687888 2.468030 1.673323 11.097917 2.094486 -1.171419 -11.316426 -1.503932 -1.659702 -4.090557 -0.446031 0.594908 -25.571442 -3.333065 -1.927954 15.682858 2.474538 -0.145208 0.650016 8.434760 0.679235 -2.100090 0.796789 -0.068491
5.222869 48.501743 42.256645 0.032764 -35.124592 -0.042100 12.620646 24.282980 -10.414602 -3.503496 -1.164673 -2.198459 5.732609 -0.116764 -1.933256 14.204787 -0.562763 0.378731 -0.131719 -0.347902 -0.237975 -10.077585 -1.176465 -0.027872 10.448711 7.234620 6.277246 -24.160614 -5.585960 -57.211178 4.648632 2.886913 1.877810 3.378622 -13.656147 -27.527014 6.724382 7.462698 -6.180688 18.351986 -5.183762 37.517502 -3.331780 2.045389 80.622597 -12.255025 15.300784 17.361128 12.471921 26.987906 -6.412629 -5.498967 2.675423 1.946383 11.473728 1.814888 -0.896659 -11.510526 -1.828864 -2.536879 -4.376641 -0.468533 0.587811 -25.170759 -3.341027 -1.276442 16.442053 2.796273 -0.205892 -0.745032 7.718844 -0.220659 -1.910484 0.832500 -0.032217
